<?xml version="1.0" standalone="no"?>
<!DOCTYPE svg PUBLIC "-//W3C//DTD SVG 20010904//EN"
 "http://www.w3.org/TR/2001/REC-SVG-20010904/DTD/svg10.dtd">
<svg version="1.0" xmlns="http://www.w3.org/2000/svg"
 width="192.000000pt" height="192.000000pt" viewBox="0 0 192.000000 192.000000"
 preserveAspectRatio="xMidYMid meet">
<metadata>
Calculator icon for Safari pinned tab
</metadata>
<g transform="translate(0.000000,192.000000) scale(0.100000,-0.100000)"
fill="#000000" stroke="none">
<path d="M460 1660 c-52 -19 -96 -63 -115 -115 -19 -52 -19 -1038 0 -1090 19
-52 63 -96 115 -115 52 -19 1038 -19 1090 0 52 19 96 63 115 115 19 52 19
1038 0 1090 -19 52 -63 96 -115 115 -47 17 -1043 17 -1090 0z m1090 -200 l0
-1200 -590 0 -590 0 0 1200 0 1200 590 0 590 0 0 -1200z"/>
<path d="M750 1360 c-66 -12 -60 -120 8 -120 68 0 74 108 8 120 -19 4 -35 4
-16 0z"/>
<path d="M1050 1360 c-66 -12 -60 -120 8 -120 68 0 74 108 8 120 -19 4 -35 4
-16 0z"/>
<path d="M1350 1360 c-66 -12 -60 -120 8 -120 68 0 74 108 8 120 -19 4 -35 4
-16 0z"/>
<path d="M750 1060 c-66 -12 -60 -120 8 -120 68 0 74 108 8 120 -19 4 -35 4
-16 0z"/>
<path d="M1050 1060 c-66 -12 -60 -120 8 -120 68 0 74 108 8 120 -19 4 -35 4
-16 0z"/>
<path d="M1350 1060 c-66 -12 -60 -120 8 -120 68 0 74 108 8 120 -19 4 -35 4
-16 0z"/>
<path d="M750 760 c-66 -12 -60 -120 8 -120 68 0 74 108 8 120 -19 4 -35 4
-16 0z"/>
<path d="M1050 760 c-66 -12 -60 -120 8 -120 68 0 74 108 8 120 -19 4 -35 4
-16 0z"/>
<path d="M1350 760 c-66 -12 -60 -120 8 -120 68 0 74 108 8 120 -19 4 -35 4
-16 0z"/>
</g>
</svg>